<svg xmlns="http://www.w3.org/2000/svg" viewBox="0 0 512 512" fill="#00ff00">
  <path d="M504.717 216.325l-67.896-67.896c-9.997-9.998-26.206-9.998-36.204 0L344.414 204.632l-67.895-67.896c-9.997-9.997-26.206-9.997-36.204 0L7.283 369.768c-9.997 9.997-9.997 26.206 0 36.203l67.896 67.896c9.997 9.998 26.206 9.998 36.204 0l233.032-233.031 67.895 67.895c9.997 9.997 26.206 9.997 36.204 0l56.203-56.203c9.997-9.997 9.997-26.206 0-36.203zM57.384 441.765L39.485 423.866 254.315 209.036l17.899 17.899L57.384 441.765zm385.383-168.998l-17.899-17.899L209.036 39.036l17.899-17.899 214.832 214.831-17.899 17.899z"/>
</svg>